<mxGraphModel><root><mxCell id="Ingredient" value="Ingredient" style="shape=rectangle;whiteSpace=wrap;html=1;" vertex="1" parent="1">
      <mxGeometry x="0" y="50" width="100" height="60" as="geometry" />
    </mxCell><mxCell id="Recipe" value="Recipe" style="shape=rectangle;whiteSpace=wrap;html=1;" vertex="1" parent="1">
      <mxGeometry x="120" y="50" width="100" height="60" as="geometry" />
    </mxCell><mxCell id="RecipeComplete" value="RecipeComplete" style="shape=rectangle;whiteSpace=wrap;html=1;" vertex="1" parent="1">
      <mxGeometry x="240" y="50" width="100" height="60" as="geometry" />
    </mxCell><mxCell id="RecipeInput" value="RecipeInput" style="shape=rectangle;whiteSpace=wrap;html=1;" vertex="1" parent="1">
      <mxGeometry x="360" y="50" width="100" height="60" as="geometry" />
    </mxCell><mxCell id="rel0" style="edgeStyle=orthogonalEdgeStyle;rounded=0;" edge="1" parent="1" source="RecipeComplete" target="import("/Users/gianlucaascari/Documents/spaguette-project/spaguette-app/types/Catalogue").Recipe">
      <mxGeometry relative="1" as="geometry" />
    </mxCell></root></mxGraphModel>